<svg width="20" height="20" viewBox="0 0 20 20" fill="none" xmlns="http://www.w3.org/2000/svg">
<path d="M4.16667 4.16927H5.83333V6.66927H14.1667V4.16927H15.8333V8.33594H17.5V4.16927C17.5 3.2526 16.75 2.5026 15.8333 2.5026H12.35C12 1.53594 11.0833 0.835938 10 0.835938C8.91667 0.835938 8 1.53594 7.65 2.5026H4.16667C3.25 2.5026 2.5 3.2526 2.5 4.16927V15.8359C2.5 16.7526 3.25 17.5026 4.16667 17.5026H9.16667V15.8359H4.16667V4.16927ZM10 2.5026C10.4583 2.5026 10.8333 2.8776 10.8333 3.33594C10.8333 3.79427 10.4583 4.16927 10 4.16927C9.54167 4.16927 9.16667 3.79427 9.16667 3.33594C9.16667 2.8776 9.54167 2.5026 10 2.5026Z" fill="black"/>
<path d="M17.5013 9.58594L12.9263 14.1693L10.418 11.6693L9.16797 12.9193L12.9263 16.6693L18.7513 10.8359L17.5013 9.58594Z" fill="black"/>
</svg>
