<svg width="20" height="20" viewBox="0 0 20 20" fill="none" xmlns="http://www.w3.org/2000/svg">
<path d="M14.1667 16.0141H4.16667V5.83073H10V4.16406H4.16667C3.25 4.16406 2.5 4.91406 2.5 5.83073V15.8307C2.5 16.7474 3.25 17.4974 4.16667 17.4974H14.1667C15.0833 17.4974 15.8333 16.7474 15.8333 15.8307V9.9974H14.1667V16.0141Z" fill="black"/>
<path d="M15.8346 1.66406H14.168V4.16406H11.668C11.6763 4.1724 11.668 5.83073 11.668 5.83073H14.168V8.3224C14.1763 8.33073 15.8346 8.3224 15.8346 8.3224V5.83073H18.3346V4.16406H15.8346V1.66406Z" fill="black"/>
<path d="M12.4987 7.49609H5.83203V9.16276H12.4987V7.49609Z" fill="black"/>
<path d="M5.83203 9.99609V11.6628H12.4987V9.99609H9.9987H5.83203Z" fill="black"/>
<path d="M12.4987 12.4961H5.83203V14.1628H12.4987V12.4961Z" fill="black"/>
</svg>
