<svg width="24" height="24" viewBox="0 0 24 24" fill="none" xmlns="http://www.w3.org/2000/svg">
<g opacity="0.86" clip-path="url(#clip0_8880_819)">
<path d="M4.98793 11.427C4.98791 11.293 5.01435 11.1602 5.06576 11.0365C5.11717 10.9127 5.1925 10.8003 5.28745 10.7057C5.38241 10.6112 5.4951 10.5363 5.61906 10.4855C5.74302 10.4346 5.87581 10.4087 6.00978 10.4093L7.70392 10.4149C7.97405 10.4149 8.23311 10.5223 8.42411 10.7133C8.61512 10.9044 8.72242 11.1635 8.72242 11.4337V17.8422C8.91327 17.7856 9.15804 17.7253 9.42616 17.6624C9.61233 17.6185 9.77824 17.513 9.89701 17.3631C10.0158 17.2131 10.0804 17.0274 10.0805 16.8361V8.88705C10.0804 8.75323 10.1068 8.62072 10.158 8.49709C10.2092 8.37344 10.2842 8.2611 10.3788 8.16647C10.4733 8.07183 10.5856 7.99677 10.7092 7.94554C10.8328 7.89432 10.9653 7.86795 11.0991 7.86794H12.7966C13.0666 7.86799 13.3257 7.97535 13.5167 8.16641C13.7077 8.35747 13.815 8.61661 13.8151 8.88681V16.2649C13.8151 16.2649 14.2399 16.0928 14.6539 15.9179C14.8078 15.8529 14.939 15.744 15.0313 15.6048C15.1235 15.4656 15.1728 15.3023 15.173 15.1353V6.33944C15.173 6.20565 15.1993 6.07315 15.2505 5.94954C15.3017 5.82592 15.3767 5.71361 15.4712 5.61899C15.5658 5.52439 15.6781 5.44934 15.8017 5.39813C15.9253 5.34693 16.0577 5.32057 16.1914 5.32057H17.8889C18.159 5.32057 18.4181 5.42791 18.6091 5.61898C18.8001 5.81006 18.9074 6.06921 18.9074 6.33944V13.5823C20.3792 12.5154 21.8706 11.2321 23.0543 9.68902C23.2261 9.46504 23.3397 9.20201 23.385 8.92342C23.4304 8.64481 23.4062 8.3593 23.3145 8.09235C22.5136 5.75758 21.0114 3.72722 19.0133 2.27894C17.0151 0.83064 14.6185 0.0350995 12.1512 0.00108791C5.49797 -0.0883193 -0.000596 5.34469 5.75694e-05 12.0011C-0.00647511 14.1074 0.543072 16.1781 1.59313 18.0038C1.73794 18.2535 1.95098 18.4567 2.20723 18.5895C2.46347 18.7223 2.75229 18.7792 3.03973 18.7535C3.36087 18.7251 3.7607 18.6853 4.236 18.6294C4.44288 18.6058 4.63387 18.507 4.77262 18.3517C4.91135 18.1963 4.98813 17.9954 4.98834 17.7872V11.427" fill="black"/>
<path d="M4.9532 21.7071C6.74251 23.0091 8.85701 23.7907 11.0628 23.9654C13.2686 24.1399 15.4797 23.7007 17.4514 22.6962C19.4231 21.6918 21.0786 20.1612 22.2349 18.274C23.3911 16.3867 24.0028 14.2163 24.0024 12.0028C24.0024 11.7266 23.9896 11.4534 23.9712 11.1816C19.5888 17.7196 11.4973 20.7762 4.95312 21.7073" fill="black"/>
</g>
<defs>
<clipPath id="clip0_8880_819">
<rect width="24" height="24" fill="white"/>
</clipPath>
</defs>
</svg>
