<svg width="20" height="20" viewBox="0 0 20 20" fill="none" xmlns="http://www.w3.org/2000/svg">
<g clip-path="url(#clip0_8820_1606)">
<path d="M4.15661 9.52249C4.15659 9.4108 4.17863 9.3002 4.22147 9.19706C4.26431 9.09391 4.32709 9.00025 4.40621 8.92145C4.48534 8.84265 4.57925 8.78026 4.68255 8.73788C4.78585 8.69549 4.89651 8.67393 5.00815 8.67446L6.41993 8.67909C6.64504 8.67909 6.86092 8.76854 7.0201 8.92777C7.17927 9.087 7.26869 9.30295 7.26869 9.5281V14.8685C7.42772 14.8213 7.6317 14.771 7.85513 14.7187C8.01028 14.6821 8.14853 14.5942 8.24751 14.4692C8.34647 14.3443 8.40034 14.1895 8.40038 14.0301V7.40588C8.40037 7.29436 8.42233 7.18393 8.46497 7.0809C8.50763 6.97787 8.57015 6.88425 8.64897 6.80539C8.72779 6.72652 8.82136 6.66397 8.92435 6.62129C9.02734 6.5786 9.13772 6.55663 9.24921 6.55662H10.6638C10.8889 6.55666 11.1048 6.64612 11.2639 6.80534C11.423 6.96456 11.5125 7.18051 11.5126 7.40568V13.5541C11.5126 13.5541 11.8666 13.4107 12.2116 13.265C12.3398 13.2108 12.4491 13.12 12.5261 13.004C12.603 12.888 12.644 12.7519 12.6442 12.6128V5.28287C12.6442 5.17137 12.6661 5.06096 12.7088 4.95795C12.7514 4.85493 12.8139 4.76134 12.8927 4.6825C12.9715 4.60366 13.065 4.54111 13.1681 4.49844C13.271 4.45577 13.3814 4.43381 13.4929 4.43381H14.9074C15.1325 4.43381 15.3484 4.52326 15.5076 4.68249C15.6668 4.84171 15.7562 5.05768 15.7562 5.28287V11.3186C16.9827 10.4295 18.2255 9.36006 19.2119 8.07418C19.3551 7.88753 19.4497 7.66834 19.4875 7.43618C19.5253 7.20401 19.5051 6.96609 19.4288 6.74363C18.7613 4.79798 17.5095 3.10602 15.8444 1.89911C14.1792 0.6922 12.1821 0.0292496 10.126 0.000906592C4.58164 -0.0735994 -0.000496667 4.45391 4.79745e-05 10.001C-0.00539592 11.7562 0.45256 13.4817 1.32761 15.0031C1.44829 15.2112 1.62582 15.3806 1.83936 15.4912C2.0529 15.6019 2.29357 15.6493 2.53311 15.6279C2.80072 15.6043 3.13391 15.571 3.53 15.5245C3.7024 15.5049 3.86156 15.4225 3.97718 15.293C4.09279 15.1636 4.15677 14.9962 4.15695 14.8227V9.52249" fill="white"/>
<path d="M4.12604 18.0876C5.61713 19.1726 7.37921 19.824 9.21738 19.9695C11.0555 20.1149 12.8981 19.7489 14.5412 18.9119C16.1843 18.0748 17.5639 16.7994 18.5274 15.2267C19.4909 13.654 20.0007 11.8453 20.0004 10.0007C20.0004 9.77055 19.9897 9.54283 19.9744 9.31641C16.3224 14.7647 9.57942 17.3119 4.12598 18.0878" fill="white"/>
</g>
<defs>
<clipPath id="clip0_8820_1606">
<rect width="20" height="20" fill="white"/>
</clipPath>
</defs>
</svg>
