<svg width="24" height="24" viewBox="0 0 24 24" fill="none" xmlns="http://www.w3.org/2000/svg">
<g opacity="0.76">
<mask id="mask0_7245_2545" style="mask-type:alpha" maskUnits="userSpaceOnUse" x="0" y="0" width="24" height="24">
<rect width="24" height="24" fill="#D9D9D9"/>
</mask>
<g mask="url(#mask0_7245_2545)">
<path d="M9 14.248C8.65 14.248 8.35433 14.127 8.113 13.885C7.871 13.6437 7.75 13.348 7.75 12.998C7.75 12.648 7.871 12.3524 8.113 12.111C8.35433 11.869 8.65 11.748 9 11.748C9.35 11.748 9.64567 11.869 9.887 12.111C10.129 12.3524 10.25 12.648 10.25 12.998C10.25 13.348 10.129 13.6437 9.887 13.885C9.64567 14.127 9.35 14.248 9 14.248ZM15 14.248C14.65 14.248 14.3543 14.127 14.113 13.885C13.871 13.6437 13.75 13.348 13.75 12.998C13.75 12.648 13.871 12.3524 14.113 12.111C14.3543 11.869 14.65 11.748 15 11.748C15.35 11.748 15.6457 11.869 15.887 12.111C16.129 12.3524 16.25 12.648 16.25 12.998C16.25 13.348 16.129 13.6437 15.887 13.885C15.6457 14.127 15.35 14.248 15 14.248ZM12 19.998C14.2333 19.998 16.125 19.223 17.675 17.673C19.225 16.123 20 14.2314 20 11.998C20 11.598 19.975 11.2104 19.925 10.835C19.875 10.4604 19.7833 10.098 19.65 9.74805C19.3 9.83138 18.95 9.89405 18.6 9.93605C18.25 9.97738 17.8833 9.99805 17.5 9.99805C15.9833 9.99805 14.55 9.67305 13.2 9.02305C11.85 8.37305 10.7 7.46471 9.75 6.29805C9.21667 7.59805 8.45433 8.72738 7.463 9.68605C6.471 10.644 5.31667 11.3647 4 11.848V11.998C4 14.2314 4.775 16.123 6.325 17.673C7.875 19.223 9.76667 19.998 12 19.998ZM12 21.998C10.6167 21.998 9.31667 21.7354 8.1 21.21C6.88333 20.6854 5.825 19.973 4.925 19.073C4.025 18.173 3.31267 17.1147 2.788 15.898C2.26267 14.6814 2 13.3814 2 11.998C2 10.6147 2.26267 9.31471 2.788 8.09805C3.31267 6.88138 4.025 5.82305 4.925 4.92305C5.825 4.02305 6.88333 3.31038 8.1 2.78505C9.31667 2.26038 10.6167 1.99805 12 1.99805C13.3833 1.99805 14.6833 2.26038 15.9 2.78505C17.1167 3.31038 18.175 4.02305 19.075 4.92305C19.975 5.82305 20.6873 6.88138 21.212 8.09805C21.7373 9.31471 22 10.6147 22 11.998C22 13.3814 21.7373 14.6814 21.212 15.898C20.6873 17.1147 19.975 18.173 19.075 19.073C18.175 19.973 17.1167 20.6854 15.9 21.21C14.6833 21.7354 13.3833 21.998 12 21.998ZM10.65 4.12305C11.35 5.28971 12.3 6.22738 13.5 6.93605C14.7 7.64405 16.0333 7.99805 17.5 7.99805C17.7333 7.99805 17.9583 7.98571 18.175 7.96105C18.3917 7.93571 18.6167 7.90638 18.85 7.87305C18.15 6.70638 17.2 5.76871 16 5.06005C14.8 4.35205 13.4667 3.99805 12 3.99805C11.7667 3.99805 11.5417 4.01038 11.325 4.03505C11.1083 4.06038 10.8833 4.08971 10.65 4.12305ZM4.425 9.47305C5.275 8.98971 6.01667 8.36471 6.65 7.59805C7.28333 6.83138 7.75833 5.97305 8.075 5.02305C7.225 5.50638 6.48333 6.13138 5.85 6.89805C5.21667 7.66471 4.74167 8.52305 4.425 9.47305Z" fill="white"/>
</g>
</g>
</svg>
