<svg width="18" height="21" viewBox="0 0 18 21" fill="none" xmlns="http://www.w3.org/2000/svg">
<path d="M9 21L6 18H2C1.45 18 0.979 17.8043 0.587 17.413C0.195667 17.021 0 16.55 0 16V2C0 1.45 0.195667 0.979 0.587 0.587C0.979 0.195667 1.45 0 2 0H16C16.55 0 17.021 0.195667 17.413 0.587C17.8043 0.979 18 1.45 18 2V16C18 16.55 17.8043 17.021 17.413 17.413C17.021 17.8043 16.55 18 16 18H12L9 21ZM2 16H6.8L9 18.2L11.2 16H16V2H2V16ZM10.55 10.55L14 9L10.55 7.45L9 4L7.45 7.45L4 9L7.45 10.55L9 14L10.55 10.55Z" fill="#1C1B1F"/>
</svg>
