<svg width="28" height="28" viewBox="0 0 28 28" fill="none" xmlns="http://www.w3.org/2000/svg">
<path d="M12.668 7.33268H15.3346V9.99935H12.668V7.33268ZM12.668 12.666H15.3346V20.666H12.668V12.666ZM14.0013 0.666016C6.6413 0.666016 0.667969 6.63935 0.667969 13.9993C0.667969 21.3593 6.6413 27.3327 14.0013 27.3327C21.3613 27.3327 27.3346 21.3593 27.3346 13.9993C27.3346 6.63935 21.3613 0.666016 14.0013 0.666016ZM14.0013 24.666C8.1213 24.666 3.33464 19.8793 3.33464 13.9993C3.33464 8.11935 8.1213 3.33268 14.0013 3.33268C19.8813 3.33268 24.668 8.11935 24.668 13.9993C24.668 19.8793 19.8813 24.666 14.0013 24.666Z" fill="black"/>
</svg>
