<svg width="132" height="16" viewBox="0 0 132 16" fill="none" xmlns="http://www.w3.org/2000/svg">
<path d="M5.39799 3.5C3.23244 3.5 1.5 5.5 1.5 8C1.5 10.5 3.23244 12.5 5.39799 12.5C7.56355 12.5 9.29599 10.5 9.29599 8C9.29599 5.5 7.56355 3.5 5.39799 3.5Z" fill="white"/>
<path d="M131.707 8.70711C132.098 8.31658 132.098 7.68342 131.707 7.29289L125.343 0.928932C124.953 0.538408 124.319 0.538408 123.929 0.928932C123.538 1.31946 123.538 1.95262 123.929 2.34315L129.586 8L123.929 13.6569C123.538 14.0474 123.538 14.6805 123.929 15.0711C124.319 15.4616 124.953 15.4616 125.343 15.0711L131.707 8.70711ZM2.5 8C2.5 5.91263 3.91472 4.5 5.39799 4.5V2.5C2.55016 2.5 0.5 5.08737 0.5 8H2.5ZM5.39799 4.5C6.88126 4.5 8.29599 5.91263 8.29599 8H10.296C10.296 5.08737 8.24583 2.5 5.39799 2.5V4.5ZM8.29599 8C8.29599 10.0874 6.88126 11.5 5.39799 11.5V13.5C8.24583 13.5 10.296 10.9126 10.296 8H8.29599ZM5.39799 11.5C3.91472 11.5 2.5 10.0874 2.5 8H0.5C0.5 10.9126 2.55016 13.5 5.39799 13.5V11.5ZM9.29599 9H131V7H9.29599V9Z" fill="black"/>
</svg>
