<svg width="24" height="24" viewBox="0 0 24 24" fill="none" xmlns="http://www.w3.org/2000/svg">
<mask id="mask0_8603_2638" style="mask-type:alpha" maskUnits="userSpaceOnUse" x="0" y="0" width="24" height="24">
<rect width="24" height="24" fill="#D9D9D9"/>
</mask>
<g mask="url(#mask0_8603_2638)">
<path d="M12 23L4.8 17.6C4.55 17.4167 4.35433 17.1833 4.213 16.9C4.071 16.6167 4 16.3167 4 16V4C4 3.45 4.196 2.979 4.588 2.587C4.97933 2.19567 5.45 2 6 2H18C18.55 2 19.021 2.19567 19.413 2.587C19.8043 2.979 20 3.45 20 4V16C20 16.3167 19.9293 16.6167 19.788 16.9C19.646 17.1833 19.45 17.4167 19.2 17.6L12 23ZM12 20.5L18 16V4H6V16L12 20.5ZM10.95 15L16.6 9.35L15.2 7.9L10.95 12.15L8.85 10.05L7.4 11.45L10.95 15Z" fill="white"/>
</g>
</svg>
