<svg width="20" height="20" viewBox="0 0 20 20" fill="none" xmlns="http://www.w3.org/2000/svg">
<mask id="mask0_7136_2539" style="mask-type:alpha" maskUnits="userSpaceOnUse" x="0" y="0" width="20" height="20">
<rect width="20" height="20" fill="#D9D9D9"/>
</mask>
<g mask="url(#mask0_7136_2539)">
<path d="M14.2494 11.8965L13.2285 10.8757C13.5341 10.5145 13.7666 10.1151 13.926 9.67732C14.086 9.2401 14.166 8.79232 14.166 8.33398C14.166 7.83398 14.0618 7.32704 13.8535 6.81315C13.6452 6.29926 13.3327 5.83398 12.916 5.41732L13.916 4.41732C14.4577 4.95898 14.871 5.5701 15.156 6.25065C15.4405 6.93121 15.5827 7.62565 15.5827 8.33398C15.5827 8.97287 15.4716 9.59426 15.2493 10.1982C15.0271 10.8026 14.6938 11.3687 14.2494 11.8965ZM11.7702 9.41732L8.91602 6.56315C9.06879 6.46593 9.23879 6.38954 9.42602 6.33398C9.61379 6.27843 9.8049 6.25065 9.99935 6.25065C10.5827 6.25065 11.0757 6.45204 11.4785 6.85482C11.8813 7.2576 12.0827 7.75065 12.0827 8.33398C12.0827 8.52843 12.0549 8.71593 11.9993 8.89648C11.9438 9.07704 11.8674 9.25065 11.7702 9.41732ZM16.2493 13.8757L15.2493 12.8757C15.8188 12.2229 16.2388 11.504 16.5093 10.719C16.7805 9.93454 16.916 9.13954 16.916 8.33398C16.916 7.45898 16.7494 6.58732 16.416 5.71898C16.0827 4.85121 15.5827 4.08398 14.916 3.41732L15.916 2.41732C16.7077 3.25065 17.3085 4.17426 17.7185 5.18815C18.128 6.20204 18.3327 7.25065 18.3327 8.33398C18.3327 9.34787 18.166 10.3234 17.8327 11.2607C17.4993 12.1984 16.9716 13.0701 16.2493 13.8757ZM16.4785 18.834L10.8327 13.1882V17.5007H9.16602V11.5215L5.83268 8.20898C5.83268 8.23676 5.83268 8.2576 5.83268 8.27148C5.83268 8.28537 5.83268 8.30621 5.83268 8.33398C5.83268 8.83398 5.93685 9.34093 6.14518 9.85482C6.35352 10.3687 6.66602 10.834 7.08268 11.2507L6.08268 12.2507C5.54102 11.709 5.12768 11.0979 4.84268 10.4173C4.55824 9.73676 4.41602 9.04232 4.41602 8.33398C4.41602 8.09787 4.4299 7.86871 4.45768 7.64648C4.48546 7.42426 4.53407 7.1951 4.60352 6.95898L3.54102 5.89648C3.38824 6.29926 3.27379 6.70537 3.19768 7.11482C3.12102 7.52482 3.08268 7.93121 3.08268 8.33398C3.08268 9.20898 3.24935 10.0804 3.58268 10.9482C3.91602 11.8165 4.41602 12.584 5.08268 13.2507L4.08268 14.2507C3.29102 13.4173 2.69018 12.4937 2.28018 11.4798C1.87074 10.4659 1.66602 9.41732 1.66602 8.33398C1.66602 7.72287 1.73185 7.12204 1.86352 6.53148C1.99574 5.94148 2.19379 5.36871 2.45768 4.81315L1.16602 3.52148L2.33268 2.33398L17.666 17.6673L16.4785 18.834Z" fill="#FF0000"/>
</g>
</svg>
