<svg width="20" height="20" viewBox="0 0 20 20" fill="none" xmlns="http://www.w3.org/2000/svg">
<path d="M19.7029 4.1138C19.0071 4.42213 18.2596 4.63047 17.4738 4.72464C18.2754 4.24464 18.8904 3.48297 19.1804 2.5763C18.4304 3.0213 17.5996 3.34464 16.7154 3.51797C16.0071 2.76464 14.9988 2.29297 13.8821 2.29297C11.7388 2.29297 10.0004 4.0313 10.0004 6.1763C10.0004 6.47963 10.0354 6.77464 10.1004 7.05964C6.87292 6.89714 4.01375 5.3513 2.09875 3.00297C1.76542 3.57797 1.57375 4.24464 1.57375 4.95464C1.57375 6.3013 2.25958 7.49047 3.30042 8.1863C2.66375 8.16547 2.06542 7.9913 1.54208 7.70047V7.75047C1.54208 9.6313 2.87958 11.2005 4.65625 11.5571C4.32958 11.6455 3.98708 11.6921 3.63375 11.6921C3.38375 11.6921 3.13958 11.6688 2.90292 11.6238C3.39708 13.1655 4.83042 14.2888 6.52958 14.3188C5.20042 15.3605 3.52625 15.9813 1.70792 15.9813C1.39458 15.9813 1.08542 15.963 0.78125 15.9271C2.49958 17.0296 4.53958 17.6713 6.73125 17.6713C13.8729 17.6713 17.7771 11.7563 17.7771 6.6263C17.7771 6.45963 17.7729 6.2913 17.7654 6.12463C18.5238 5.5763 19.1821 4.8938 19.7013 4.1163L19.7029 4.1138Z" fill="white"/>
</svg>
