<svg width="24" height="24" viewBox="0 0 24 24" fill="none" xmlns="http://www.w3.org/2000/svg">
<mask id="mask0_10541_1123" style="mask-type:alpha" maskUnits="userSpaceOnUse" x="0" y="0" width="24" height="24">
<rect width="24" height="24" fill="#FFC664"/>
</mask>
<g mask="url(#mask0_10541_1123)">
<path d="M15.2998 16.7008L10.9998 12.4008V7.00078H12.9998V11.6008L16.6998 15.3008L15.2998 16.7008ZM2.8498 16.0758C2.63314 15.5924 2.45814 15.0924 2.3248 14.5758C2.19147 14.0591 2.0998 13.5341 2.0498 13.0008H4.0748C4.1248 13.3508 4.19547 13.7008 4.2868 14.0508C4.3788 14.4008 4.49147 14.7424 4.6248 15.0758L2.8498 16.0758ZM2.0498 11.0008C2.0998 10.4674 2.19147 9.93811 2.3248 9.41278C2.45814 8.88811 2.64147 8.38411 2.8748 7.90078L4.6248 8.90078C4.49147 9.23411 4.3788 9.57578 4.2868 9.92578C4.19547 10.2758 4.1248 10.6341 4.0748 11.0008H2.0498ZM6.1748 20.1508C5.7248 19.8174 5.30814 19.4548 4.9248 19.0628C4.54147 18.6714 4.18314 18.2508 3.8498 17.8008L5.5998 16.8008C5.83314 17.1008 6.07914 17.3798 6.3378 17.6378C6.5958 17.8964 6.8748 18.1424 7.1748 18.3758L6.1748 20.1508ZM5.6248 7.17578L3.8498 6.17578C4.18314 5.72578 4.54147 5.30911 4.9248 4.92578C5.30814 4.54245 5.7248 4.18411 6.1748 3.85078L7.1748 5.62578C6.89147 5.85911 6.6208 6.10478 6.3628 6.36278C6.10414 6.62145 5.85814 6.89245 5.6248 7.17578ZM10.9998 21.9508C10.4665 21.9008 9.93747 21.8091 9.4128 21.6758C8.88747 21.5424 8.38314 21.3591 7.89981 21.1258L8.8998 19.3758C9.23314 19.5091 9.5748 19.6214 9.9248 19.7128C10.2748 19.8048 10.6331 19.8758 10.9998 19.9258V21.9508ZM8.8998 4.62578L7.89981 2.87578C8.38314 2.64245 8.88747 2.45911 9.4128 2.32578C9.93747 2.19245 10.4665 2.10078 10.9998 2.05078V4.07578C10.6331 4.12578 10.2748 4.19645 9.9248 4.28778C9.5748 4.37978 9.23314 4.49245 8.8998 4.62578ZM12.9998 21.9508V19.9258C13.3665 19.8758 13.7248 19.8048 14.0748 19.7128C14.4248 19.6214 14.7665 19.5091 15.0998 19.3758L16.0998 21.1258C15.6165 21.3591 15.1125 21.5424 14.5878 21.6758C14.0625 21.8091 13.5331 21.9008 12.9998 21.9508ZM15.0998 4.62578C14.7665 4.49245 14.4248 4.37978 14.0748 4.28778C13.7248 4.19645 13.3665 4.12578 12.9998 4.07578V2.05078C13.5331 2.10078 14.0625 2.19245 14.5878 2.32578C15.1125 2.45911 15.6165 2.64245 16.0998 2.87578L15.0998 4.62578ZM17.8248 20.1508L16.8248 18.3758C17.1081 18.1424 17.3791 17.8964 17.6378 17.6378C17.8958 17.3798 18.1415 17.1091 18.3748 16.8258L20.1498 17.8258C19.8165 18.2758 19.4581 18.6964 19.0748 19.0878C18.6915 19.4798 18.2748 19.8341 17.8248 20.1508ZM18.3748 7.17578C18.1415 6.89245 17.8958 6.62145 17.6378 6.36278C17.3791 6.10478 17.1081 5.85911 16.8248 5.62578L17.8248 3.85078C18.2748 4.16745 18.6915 4.51745 19.0748 4.90078C19.4581 5.28411 19.8081 5.70078 20.1248 6.15078L18.3748 7.17578ZM19.9248 11.0008C19.8748 10.6341 19.8041 10.2758 19.7128 9.92578C19.6208 9.57578 19.5081 9.23411 19.3748 8.90078L21.1248 7.87578C21.3415 8.37578 21.5208 8.88811 21.6628 9.41278C21.8041 9.93811 21.8998 10.4674 21.9498 11.0008H19.9248ZM21.1248 16.1008L19.3748 15.1008C19.5081 14.7674 19.6208 14.4258 19.7128 14.0758C19.8041 13.7258 19.8748 13.3674 19.9248 13.0008H21.9498C21.8998 13.5341 21.8081 14.0631 21.6748 14.5878C21.5415 15.1131 21.3581 15.6174 21.1248 16.1008Z" fill="#FFC664"/>
</g>
</svg>
