<svg width="1080" height="1080" viewBox="0 0 1080 1080" fill="none" xmlns="http://www.w3.org/2000/svg">
<g clip-path="url(#clip0_10271_7438)">
<path d="M0 137.279H316.097L395.121 67.0352H526.828H813.072V191.718V252.303L878.047 316.401H908.779H1004.49H1053.66V462.156V528.888L1080 572.79V1013.57H539.999H196.244L0 806.351V593.864V453.376V137.279Z" fill="#F5A60B"/>
<path d="M0 130.244H316.097L395.121 60H526.828H813.072V184.683V245.268L878.047 309.365H908.779H1004.49H1053.66V455.121V521.853L1080 565.755V1008.29H539.999H199.756L0 797.56V586.828V446.341V130.244Z" fill="white"/>
<path opacity="0.12" d="M395.121 60L316.097 130.244L0 446.341" stroke="black" stroke-width="1.75609"/>
<path d="M0 692H1079.67V1008H539.833H199.694L0 797.333V692Z" fill="#EDEDED"/>
<path opacity="0.12" d="M953.561 309.354V529.743L1080 743.109" stroke="black" stroke-width="1.75609" stroke-linecap="round"/>
<path d="M573.77 941.158V963H576.934V955.401H581.157C585.546 955.401 588.422 952.601 588.422 948.287C588.422 943.958 585.592 941.158 581.248 941.158H573.77ZM576.934 943.852H580.476C583.548 943.852 585.213 945.396 585.213 948.287C585.213 951.163 583.548 952.722 580.476 952.722H576.934V943.852ZM600.335 954.478L604.331 963H607.873L603.453 953.888C605.905 953.04 607.464 950.679 607.464 947.833C607.464 943.701 604.709 941.158 600.244 941.158H592.736V963H595.87V954.478H600.335ZM595.87 943.837H599.911C602.681 943.837 604.286 945.32 604.286 947.894C604.286 950.467 602.666 951.935 599.805 951.935H595.87V943.837ZM627.021 953.812V950.346C627.021 944.291 623.948 940.704 618.908 940.704C613.867 940.704 610.794 944.291 610.794 950.346V953.812C610.794 959.867 613.867 963.454 618.908 963.454C623.948 963.454 627.021 959.867 627.021 953.812ZM618.908 960.578C615.79 960.578 613.973 958.187 613.973 953.797V950.361C613.973 945.971 615.79 943.58 618.908 943.58C622.026 943.58 623.842 945.971 623.842 950.361V953.797C623.842 958.187 622.026 960.578 618.908 960.578ZM646.184 953.812V950.346C646.184 944.291 643.111 940.704 638.071 940.704C633.03 940.704 629.958 944.291 629.958 950.346V953.812C629.958 959.867 633.03 963.454 638.071 963.454C643.111 963.454 646.184 959.867 646.184 953.812ZM638.071 960.578C634.953 960.578 633.136 958.187 633.136 953.797V950.361C633.136 945.971 634.953 943.58 638.071 943.58C641.189 943.58 643.005 945.971 643.005 950.361V953.797C643.005 958.187 641.189 960.578 638.071 960.578ZM654.479 963V953.721H663.606V951.012H654.479V943.958H664.484V941.158H651.315V963H654.479ZM703.673 953.812V950.346C703.673 944.291 700.601 940.704 695.56 940.704C690.52 940.704 687.447 944.291 687.447 950.346V953.812C687.447 959.867 690.52 963.454 695.56 963.454C700.601 963.454 703.673 959.867 703.673 953.812ZM695.56 960.578C692.442 960.578 690.625 958.187 690.625 953.797V950.361C690.625 945.971 692.442 943.58 695.56 943.58C698.678 943.58 700.495 945.971 700.495 950.361V953.797C700.495 958.187 698.678 960.578 695.56 960.578ZM711.968 963V953.721H721.096V951.012H711.968V943.958H721.974V941.158H708.805V963H711.968ZM753.534 960.563C750.249 960.563 748.539 958.338 748.539 954.1V950.058C748.539 945.82 750.249 943.595 753.519 943.595C756.137 943.595 757.954 945.502 758.044 948.363H761.223C761.163 943.564 758.271 940.704 753.549 940.704C748.342 940.704 745.299 944.14 745.299 950.058V954.1C745.299 960.018 748.342 963.454 753.549 963.454C758.15 963.454 761.223 960.533 761.223 956.113H758.044C757.984 958.868 756.258 960.563 753.534 960.563ZM780.326 953.812V950.346C780.326 944.291 777.253 940.704 772.212 940.704C767.172 940.704 764.099 944.291 764.099 950.346V953.812C764.099 959.867 767.172 963.454 772.212 963.454C777.253 963.454 780.326 959.867 780.326 953.812ZM772.212 960.578C769.094 960.578 767.278 958.187 767.278 953.797V950.361C767.278 945.971 769.094 943.58 772.212 943.58C775.331 943.58 777.147 945.971 777.147 950.361V953.797C777.147 958.187 775.331 960.578 772.212 960.578ZM786.789 963V946.622H787.016L795.856 963H798.762V941.158H795.962V957.49H795.735L786.925 941.158H783.989V963H786.789ZM812.113 963V943.958H818.606V941.158H802.471V943.958H808.964V963H812.113ZM830.292 954.478L834.288 963H837.83L833.41 953.888C835.862 953.04 837.421 950.679 837.421 947.833C837.421 943.701 834.667 941.158 830.201 941.158H822.693V963H825.827V954.478H830.292ZM825.827 943.837H829.868C832.638 943.837 834.243 945.32 834.243 947.894C834.243 950.467 832.623 951.935 829.762 951.935H825.827V943.837ZM854.889 963V960.26H850.439V943.897H854.889V941.158H842.84V943.897H847.291V960.26H842.84V963H854.889ZM868.558 963C873.25 963 876.065 960.699 876.065 956.87C876.065 953.979 874.098 951.814 871.161 951.557V951.33C873.401 950.951 874.976 948.968 874.976 946.562C874.976 943.186 872.539 941.158 868.452 941.158H861.095V963H868.558ZM864.198 943.731H867.68C870.329 943.731 871.812 944.957 871.812 947.122C871.812 949.271 870.223 950.467 867.332 950.467H864.198V943.731ZM864.198 960.396V952.934H867.695C871.055 952.934 872.796 954.19 872.796 956.627C872.796 959.14 871.101 960.396 867.771 960.396H864.198ZM887.191 960.563C884.224 960.563 882.514 958.595 882.514 955.189V941.158H879.365V955.386C879.365 960.442 882.287 963.454 887.191 963.454C892.095 963.454 895.017 960.442 895.017 955.386V941.158H891.868V955.189C891.868 958.595 890.158 960.563 887.191 960.563ZM907.928 963V943.958H914.422V941.158H898.286V943.958H904.78V963H907.928ZM931.542 963V960.26H927.091V943.897H931.542V941.158H919.493V943.897H923.943V960.26H919.493V963H931.542ZM952.793 953.812V950.346C952.793 944.291 949.721 940.704 944.68 940.704C939.64 940.704 936.567 944.291 936.567 950.346V953.812C936.567 959.867 939.64 963.454 944.68 963.454C949.721 963.454 952.793 959.867 952.793 953.812ZM944.68 960.578C941.562 960.578 939.746 958.187 939.746 953.797V950.361C939.746 945.971 941.562 943.58 944.68 943.58C947.798 943.58 949.615 945.971 949.615 950.361V953.797C949.615 958.187 947.798 960.578 944.68 960.578ZM959.257 963V946.622H959.484L968.324 963H971.23V941.158H968.43V957.49H968.203L959.393 941.158H956.457V963H959.257Z" fill="black"/>
<rect x="1005" y="937" width="7.5" height="29.9993" fill="black"/>
<rect x="1016.25" y="937" width="7.5" height="29.9993" fill="black"/>
<rect x="1027.5" y="959.5" width="7.5" height="7.49982" fill="black"/>
<rect x="1027.5" y="948.25" width="7.5" height="7.49982" fill="black"/>
<path opacity="0.5" d="M262.172 954.478L266.168 963H269.71L265.29 953.888C267.742 953.04 269.301 950.679 269.301 947.833C269.301 943.701 266.546 941.158 262.081 941.158H254.573V963H257.707V954.478H262.172ZM257.707 943.837H261.748C264.518 943.837 266.123 945.32 266.123 947.894C266.123 950.467 264.503 951.935 261.642 951.935H257.707V943.837ZM287.647 960.2H277.672V953.207H287.087V950.573H277.672V943.958H287.647V941.158H274.508V963H287.647V960.2ZM293.096 941.158V963H296.26V955.401H300.483C304.873 955.401 307.749 952.601 307.749 948.287C307.749 943.958 304.918 941.158 300.574 941.158H293.096ZM296.26 943.852H299.802C302.875 943.852 304.54 945.396 304.54 948.287C304.54 951.163 302.875 952.722 299.802 952.722H296.26V943.852ZM316.407 953.025H318.935C321.811 953.025 323.642 954.539 323.642 956.915C323.642 959.246 321.856 960.714 319.01 960.714C316.392 960.714 314.56 959.292 314.348 957.066H311.396C311.593 960.926 314.651 963.454 319.101 963.454C323.612 963.454 326.806 960.805 326.806 957.036C326.806 954.084 325.065 952.071 322.144 951.693V951.451C324.505 950.906 325.913 949.014 325.913 946.41C325.913 943.05 323.067 940.704 318.995 940.704C314.787 940.704 312.047 943.095 311.82 946.97H314.757C314.954 944.73 316.513 943.353 318.889 943.353C321.266 943.353 322.84 944.73 322.84 946.864C322.84 949.014 321.205 950.512 318.844 950.512H316.407V953.025Z" fill="black"/>
<path d="M102.045 713.073L81 692H123.09L102.045 713.073Z" fill="white"/>
<path d="M102.046 713.081L123.091 734.154H81.0015L102.046 713.081Z" fill="white"/>
<path d="M238.84 692.009L259.885 713.082H217.795L238.84 692.009Z" fill="white"/>
<rect x="133.618" y="699.035" width="42.0898" height="14.0488" rx="7.02438" fill="white"/>
<rect x="182.72" y="699.035" width="14.0299" height="14.0488" rx="7.01497" fill="white"/>
<rect x="280.919" y="699.035" width="14.0299" height="14.0488" rx="7.01497" fill="white"/>
<rect x="301.97" y="699.035" width="14.0299" height="14.0488" rx="7.01497" fill="white"/>
<path d="M709.464 678.145H920.195L934.244 692.193H695.415L709.464 678.145Z" fill="#EDEDED"/>
<path d="M574.616 691.315L586.909 679.023H796.913L809.206 691.315H574.616Z" stroke="#EDEDED" stroke-width="1.75609"/>
</g>
<defs>
<clipPath id="clip0_10271_7438">
<rect width="1080" height="1080" fill="white"/>
</clipPath>
</defs>
</svg>
